<svg width="859" height="850" viewBox="0 0 859 850" fill="none" xmlns="http://www.w3.org/2000/svg">
<ellipse cx="418.414" cy="409.476" rx="388.477" ry="396.429" fill="url(#paint0_linear_278_586)"/>
<path d="M856.667 431.838C856.667 661.603 665.523 847.953 429.626 847.953C193.729 847.953 2.58594 661.603 2.58594 431.838C2.58594 202.072 193.729 15.7227 429.626 15.7227C665.523 15.7227 856.667 202.072 856.667 431.838Z" fill="url(#paint1_linear_278_586)" stroke="white" stroke-width="4"/>
<mask id="path-3-inside-1_278_586" fill="white">
<path fill-rule="evenodd" clip-rule="evenodd" d="M429.746 416.577C432.32 417.286 434.919 418.021 437.545 418.784C809.441 526.865 586.803 32.6741 311.25 17.8948C115.072 75.1192 -55.3179 271.453 17.9275 548.91C25.6484 277.876 537.615 54.9773 429.746 416.577ZM364.149 5.95268C387.689 2.59024 410.577 0.894546 432.773 0.727985C431.469 0.718904 430.162 0.714355 428.853 0.714355C407.395 0.714355 385.734 2.48512 364.149 5.95268Z"/>
</mask>
<path fill-rule="evenodd" clip-rule="evenodd" d="M429.746 416.577C432.32 417.286 434.919 418.021 437.545 418.784C809.441 526.865 586.803 32.6741 311.25 17.8948C115.072 75.1192 -55.3179 271.453 17.9275 548.91C25.6484 277.876 537.615 54.9773 429.746 416.577ZM364.149 5.95268C387.689 2.59024 410.577 0.894546 432.773 0.727985C431.469 0.718904 430.162 0.714355 428.853 0.714355C407.395 0.714355 385.734 2.48512 364.149 5.95268Z" fill="url(#paint2_linear_278_586)"/>
<path d="M429.746 416.577L425.913 415.433L424.745 419.348L428.684 420.433L429.746 416.577ZM437.545 418.784L436.428 422.625L437.545 418.784ZM311.25 17.8948L311.464 13.9005L310.784 13.864L310.13 14.0548L311.25 17.8948ZM17.9275 548.91L14.0599 549.931L21.9258 549.023L17.9275 548.91ZM364.149 5.95268L363.514 2.00331L364.714 9.91249L364.149 5.95268ZM432.773 0.727985L432.803 4.72787L432.8 -3.27192L432.773 0.727985ZM428.684 420.433C431.239 421.137 433.821 421.867 436.428 422.625L438.661 414.943C436.018 414.175 433.4 413.434 430.809 412.72L428.684 420.433ZM436.428 422.625C529.68 449.726 587.707 439.711 616.48 406.437C645.131 373.304 642.858 319.241 620.918 262.959C598.855 206.365 556.414 146.058 502.153 98.9472C447.898 51.8418 381.502 17.657 311.464 13.9005L311.036 21.889C378.775 25.5222 443.541 58.6535 496.908 104.988C550.269 151.317 591.91 210.574 613.464 265.865C635.14 321.469 636.018 371.611 610.429 401.204C584.962 430.655 531.357 441.883 438.661 414.943L436.428 422.625ZM21.795 547.889C-50.7986 272.901 117.885 78.4656 312.37 21.7347L310.13 14.0548C112.26 71.7729 -59.8373 270.005 14.0599 549.931L21.795 547.889ZM433.579 417.72C460.648 326.98 449.484 270.78 414.454 243.437C379.756 216.353 323.794 219.451 265.748 241.772C207.389 264.213 145.514 306.565 97.7099 360.384C49.9193 414.188 15.8945 479.801 13.9291 548.796L21.9258 549.023C23.8208 482.502 56.6873 418.615 103.691 365.697C150.682 312.793 211.504 271.202 268.619 249.239C326.046 227.156 378.332 225.39 409.531 249.743C440.399 273.837 452.779 325.373 425.913 415.433L433.579 417.72ZM364.714 9.91249C388.082 6.57479 410.79 4.89306 432.803 4.72787L432.743 -3.2719C410.363 -3.10396 387.297 -1.39431 363.583 1.99287L364.714 9.91249ZM428.853 4.71436C430.153 4.71436 431.45 4.71887 432.745 4.72789L432.8 -3.27192C431.487 -3.28106 430.172 -3.28564 428.853 -3.28564V4.71436ZM364.783 9.90204C386.166 6.46704 407.615 4.71436 428.853 4.71436V-3.28564C407.175 -3.28564 385.302 -1.49681 363.514 2.00331L364.783 9.90204Z" fill="white" mask="url(#path-3-inside-1_278_586)"/>
<mask id="path-5-inside-2_278_586" fill="white">
<path fill-rule="evenodd" clip-rule="evenodd" d="M429.527 441.139C426.953 440.442 424.354 439.719 421.729 438.969C49.8328 332.72 272.47 818.535 548.024 833.063C744.201 776.809 914.591 583.803 841.346 311.049C833.625 577.489 321.658 796.609 429.527 441.139ZM495.125 844.803C471.584 848.109 448.697 849.776 426.501 849.939C427.804 849.948 429.111 849.953 430.421 849.953C451.879 849.953 473.539 848.212 495.125 844.803Z"/>
</mask>
<path fill-rule="evenodd" clip-rule="evenodd" d="M429.527 441.139C426.953 440.442 424.354 439.719 421.729 438.969C49.8328 332.72 272.47 818.535 548.024 833.063C744.201 776.809 914.591 583.803 841.346 311.049C833.625 577.489 321.658 796.609 429.527 441.139ZM495.125 844.803C471.584 848.109 448.697 849.776 426.501 849.939C427.804 849.948 429.111 849.953 430.421 849.953C451.879 849.953 473.539 848.212 495.125 844.803Z" fill="url(#paint3_linear_278_586)"/>
<path d="M429.527 441.139L433.355 442.3L434.552 438.355L430.572 437.278L429.527 441.139ZM421.729 438.969L420.63 442.815V442.815L421.729 438.969ZM548.024 833.063L547.813 837.058L548.482 837.093L549.126 836.908L548.024 833.063ZM841.346 311.049L845.209 310.011L837.348 310.933L841.346 311.049ZM495.125 844.803L495.749 848.754L494.569 840.842L495.125 844.803ZM426.501 849.939L426.471 845.939L426.473 853.939L426.501 849.939ZM430.572 437.278C428.017 436.586 425.435 435.868 422.828 435.123L420.63 442.815C423.273 443.57 425.89 444.298 428.482 445L430.572 437.278ZM422.828 435.123C329.59 408.485 271.588 418.328 242.816 451.037C214.129 483.649 216.419 536.858 238.364 592.199C260.433 647.851 302.883 707.144 357.146 753.458C411.406 799.769 477.795 833.366 547.813 837.058L548.234 829.069C480.476 825.496 415.703 792.919 362.34 747.373C308.981 701.831 267.348 643.586 245.801 589.25C224.13 534.602 223.269 485.371 248.822 456.321C274.29 427.368 327.92 416.328 420.63 442.815L422.828 435.123ZM837.483 312.086C873.82 447.398 849.693 562.666 792.362 651.067C734.977 739.553 644.18 801.329 546.921 829.218L549.126 836.908C648.044 808.543 740.532 745.689 799.074 655.42C857.672 565.066 882.118 447.454 845.209 310.011L837.483 312.086ZM425.699 439.977C398.624 529.202 409.784 584.514 444.846 611.418C479.53 638.032 535.464 634.992 593.505 613.052C651.857 590.994 713.732 549.361 761.541 496.45C809.333 443.556 843.378 379.033 845.344 311.165L837.348 310.933C835.454 376.285 802.607 439.067 755.605 491.086C708.619 543.088 647.797 583.976 590.676 605.569C533.243 627.28 480.929 629.022 449.716 605.071C418.88 581.41 406.496 530.811 433.355 442.3L425.699 439.977ZM494.569 840.842C471.199 844.123 448.487 845.777 426.471 845.939L426.53 853.939C448.906 853.774 471.97 852.094 495.681 848.764L494.569 840.842ZM430.421 845.953C429.12 845.953 427.823 845.948 426.528 845.939L426.473 853.939C427.786 853.948 429.102 853.953 430.421 853.953V845.953ZM494.501 840.852C473.115 844.229 451.663 845.953 430.421 845.953V853.953C452.094 853.953 473.964 852.194 495.749 848.754L494.501 840.852Z" fill="white" mask="url(#path-5-inside-2_278_586)"/>
<mask id="path-7-inside-3_278_586" fill="white">
<path fill-rule="evenodd" clip-rule="evenodd" d="M425.337 0.714844C675.8 1.88652 835.507 189.486 856.76 375.822C755.77 643.063 318.299 772.765 429.394 418.81C429.43 418.697 429.465 418.584 429.5 418.471C804.66 523.36 583.431 45.272 305.682 18.6734C345.07 7.23622 385.514 1.10547 425.337 0.714844Z"/>
</mask>
<path fill-rule="evenodd" clip-rule="evenodd" d="M425.337 0.714844C675.8 1.88652 835.507 189.486 856.76 375.822C755.77 643.063 318.299 772.765 429.394 418.81C429.43 418.697 429.465 418.584 429.5 418.471C804.66 523.36 583.431 45.272 305.682 18.6734C345.07 7.23622 385.514 1.10547 425.337 0.714844Z" fill="url(#paint4_radial_278_586)"/>
<path d="M425.337 0.714844L425.355 -3.28511L425.327 -3.28525L425.298 -3.28496L425.337 0.714844ZM856.76 375.822L860.501 377.236L860.844 376.33L860.734 375.368L856.76 375.822ZM429.394 418.81L425.578 417.612L425.578 417.612L429.394 418.81ZM429.5 418.471L430.578 414.619L426.842 413.575L425.683 417.276L429.5 418.471ZM305.682 18.6734L304.566 14.8321L305.3 22.6552L305.682 18.6734ZM425.318 4.7148C673.546 5.87602 831.738 191.738 852.785 376.275L860.734 375.368C839.276 187.234 678.055 -2.10298 425.355 -3.28511L425.318 4.7148ZM853.018 374.408C828.062 440.445 782.26 498.115 729.207 541.973C676.136 585.846 616.046 615.702 562.762 626.342C509.332 637.01 463.811 628.227 438.214 596.487C412.535 564.646 405.56 508.103 433.211 420.008L425.578 417.612C397.68 506.494 403.729 566.471 431.986 601.51C460.325 636.649 509.653 645.104 564.328 634.187C619.148 623.24 680.418 592.686 734.305 548.139C788.209 503.577 834.962 444.818 860.501 377.236L853.018 374.408ZM433.211 420.008C433.246 419.894 433.282 419.78 433.318 419.666L425.683 417.276C425.648 417.388 425.613 417.5 425.578 417.612L433.211 420.008ZM428.423 422.324C522.466 448.616 581.119 438.984 610.444 406.682C639.733 374.42 637.861 321.642 616.155 266.417C594.328 210.885 551.953 151.392 497.586 104.095C443.221 56.8 376.561 21.4428 306.063 14.6916L305.3 22.6552C373.677 29.2033 438.827 63.5816 492.335 110.131C545.842 156.679 587.405 215.139 608.709 269.343C630.134 323.854 630.586 372.593 604.521 401.305C578.493 429.975 524.115 440.771 430.578 414.619L428.423 422.324ZM306.797 22.5148C345.852 11.1744 385.935 5.10154 425.376 4.71465L425.298 -3.28496C385.094 -2.8906 344.288 3.29807 304.566 14.8321L306.797 22.5148Z" fill="white" mask="url(#path-7-inside-3_278_586)"/>
<path d="M430.5 734C373.339 734 327 687.661 327 630.5V232.5C327 175.339 373.339 129 430.5 129C487.661 129 534 175.339 534 232.5V630.5C534 687.661 487.661 734 430.5 734Z" fill="white"/>
<path d="M732 431.5C732 488.661 685.661 535 628.5 535H230.5C173.339 535 127 488.661 127 431.5C127 374.339 173.339 328 230.5 328H628.5C685.661 328 732 374.339 732 431.5Z" fill="white"/>
<path d="M328.3 328L533 534.714H328.3V328Z" fill="url(#paint5_linear_278_586)"/>
<path d="M326 532.992L533 328.574V532.992H326Z" fill="url(#paint6_linear_278_586)"/>
<defs>
<linearGradient id="paint0_linear_278_586" x1="29.9375" y1="368.953" x2="808.664" y2="557.186" gradientUnits="userSpaceOnUse">
<stop offset="0.0950156" stop-color="#752CDF"/>
<stop offset="0.269939" stop-color="#813DE4"/>
<stop offset="0.869819" stop-color="#B585FB"/>
</linearGradient>
<linearGradient id="paint1_linear_278_586" x1="176.969" y1="297.112" x2="348.898" y2="852.512" gradientUnits="userSpaceOnUse">
<stop stop-color="#763ACB"/>
<stop offset="0.212039" stop-color="#8046D3"/>
<stop offset="0.776028" stop-color="#B381FA"/>
</linearGradient>
<linearGradient id="paint2_linear_278_586" x1="474.437" y1="111.283" x2="68.5446" y2="283.125" gradientUnits="userSpaceOnUse">
<stop stop-color="#7539CA"/>
<stop offset="0.232398" stop-color="#7F44D1"/>
<stop offset="0.988576" stop-color="#B685FC"/>
</linearGradient>
<linearGradient id="paint3_linear_278_586" x1="250.383" y1="628.816" x2="798.366" y2="577.965" gradientUnits="userSpaceOnUse">
<stop offset="0.0708217" stop-color="#763ACB"/>
<stop offset="0.210292" stop-color="#7F45D2"/>
<stop offset="0.920879" stop-color="#B281F9"/>
</linearGradient>
<radialGradient id="paint4_radial_278_586" cx="0" cy="0" r="1" gradientUnits="userSpaceOnUse" gradientTransform="translate(738.535 525.682) rotate(-119.695) scale(604.33 794.122)">
<stop offset="0.0555862" stop-color="#7034C7"/>
<stop offset="0.294792" stop-color="#793FCE"/>
<stop offset="0.887832" stop-color="#B585FB"/>
</radialGradient>
<linearGradient id="paint5_linear_278_586" x1="430.65" y1="328" x2="430.65" y2="534.714" gradientUnits="userSpaceOnUse">
<stop offset="0.0239582" stop-color="#6237A0"/>
<stop offset="0.461458" stop-color="#6237A0"/>
<stop offset="0.789583" stop-color="#693DA7"/>
<stop offset="0.9999" stop-color="#8F61D1"/>
<stop offset="1" stop-color="#B585FB"/>
</linearGradient>
<linearGradient id="paint6_linear_278_586" x1="419.5" y1="329" x2="421.5" y2="547" gradientUnits="userSpaceOnUse">
<stop offset="0.0239582" stop-color="#6237A0"/>
<stop offset="0.461458" stop-color="#6237A0"/>
<stop offset="0.789583" stop-color="#693DA7"/>
<stop offset="0.9999" stop-color="#8F61D1"/>
<stop offset="1" stop-color="#B585FB"/>
</linearGradient>
</defs>
</svg>
